<mxfile host="app.diagrams.net" agent="Mozilla/5.0 (X11; Linux x86_64) AppleWebKit/537.36 (KHTML, like Gecko) Chrome/133.0.0.0 Safari/537.36" version="26.0.14">
  <diagram name="Página-1" id="PDe31W9gocVp0Huvh6tu">
    <mxGraphModel dx="1024" dy="563" grid="1" gridSize="10" guides="1" tooltips="1" connect="1" arrows="1" fold="1" page="1" pageScale="1" pageWidth="827" pageHeight="1169" math="0" shadow="0">
      <root>
        <mxCell id="0" />
        <mxCell id="1" parent="0" />
        <mxCell id="DlAjDnFaqCmhrRuFa9Sz-2" value="E" style="swimlane;whiteSpace=wrap;html=1;" vertex="1" parent="1">
          <mxGeometry x="40" y="50" width="940" height="360" as="geometry" />
        </mxCell>
        <mxCell id="DlAjDnFaqCmhrRuFa9Sz-3" value="Delegacia" style="rounded=0;whiteSpace=wrap;html=1;" vertex="1" parent="DlAjDnFaqCmhrRuFa9Sz-2">
          <mxGeometry x="390" y="190" width="120" height="50" as="geometry" />
        </mxCell>
        <mxCell id="DlAjDnFaqCmhrRuFa9Sz-5" value="Código da DP" style="ellipse;whiteSpace=wrap;html=1;" vertex="1" parent="DlAjDnFaqCmhrRuFa9Sz-2">
          <mxGeometry x="350" y="280" width="90" height="50" as="geometry" />
        </mxCell>
        <mxCell id="DlAjDnFaqCmhrRuFa9Sz-8" value="" style="endArrow=none;html=1;rounded=0;entryX=0.25;entryY=1;entryDx=0;entryDy=0;" edge="1" parent="DlAjDnFaqCmhrRuFa9Sz-2" source="DlAjDnFaqCmhrRuFa9Sz-5" target="DlAjDnFaqCmhrRuFa9Sz-3">
          <mxGeometry width="50" height="50" relative="1" as="geometry">
            <mxPoint x="340" y="290" as="sourcePoint" />
            <mxPoint x="390" y="240" as="targetPoint" />
          </mxGeometry>
        </mxCell>
        <mxCell id="DlAjDnFaqCmhrRuFa9Sz-9" value="Nome" style="ellipse;whiteSpace=wrap;html=1;" vertex="1" parent="DlAjDnFaqCmhrRuFa9Sz-2">
          <mxGeometry x="460" y="280" width="90" height="50" as="geometry" />
        </mxCell>
        <mxCell id="DlAjDnFaqCmhrRuFa9Sz-10" value="" style="endArrow=none;html=1;rounded=0;exitX=0.5;exitY=0;exitDx=0;exitDy=0;" edge="1" parent="DlAjDnFaqCmhrRuFa9Sz-2" source="DlAjDnFaqCmhrRuFa9Sz-9">
          <mxGeometry width="50" height="50" relative="1" as="geometry">
            <mxPoint x="480" y="260" as="sourcePoint" />
            <mxPoint x="480" y="240" as="targetPoint" />
          </mxGeometry>
        </mxCell>
        <mxCell id="DlAjDnFaqCmhrRuFa9Sz-12" value="Endereço" style="ellipse;whiteSpace=wrap;html=1;" vertex="1" parent="DlAjDnFaqCmhrRuFa9Sz-2">
          <mxGeometry x="430" y="130" width="70" height="40" as="geometry" />
        </mxCell>
        <mxCell id="DlAjDnFaqCmhrRuFa9Sz-13" value="" style="endArrow=none;html=1;rounded=0;entryX=0.417;entryY=1.012;entryDx=0;entryDy=0;entryPerimeter=0;exitX=0.5;exitY=0;exitDx=0;exitDy=0;" edge="1" parent="DlAjDnFaqCmhrRuFa9Sz-2" source="DlAjDnFaqCmhrRuFa9Sz-3" target="DlAjDnFaqCmhrRuFa9Sz-12">
          <mxGeometry width="50" height="50" relative="1" as="geometry">
            <mxPoint x="540" y="210" as="sourcePoint" />
            <mxPoint x="490" y="115" as="targetPoint" />
            <Array as="points" />
          </mxGeometry>
        </mxCell>
        <mxCell id="DlAjDnFaqCmhrRuFa9Sz-14" value="Logradouro" style="ellipse;whiteSpace=wrap;html=1;" vertex="1" parent="DlAjDnFaqCmhrRuFa9Sz-2">
          <mxGeometry x="370" y="60" width="70" height="50" as="geometry" />
        </mxCell>
        <mxCell id="DlAjDnFaqCmhrRuFa9Sz-15" value="" style="endArrow=none;html=1;rounded=0;exitX=0;exitY=0;exitDx=0;exitDy=0;" edge="1" parent="DlAjDnFaqCmhrRuFa9Sz-2" source="DlAjDnFaqCmhrRuFa9Sz-12" target="DlAjDnFaqCmhrRuFa9Sz-14">
          <mxGeometry width="50" height="50" relative="1" as="geometry">
            <mxPoint x="620" y="200" as="sourcePoint" />
            <mxPoint x="670" y="150" as="targetPoint" />
          </mxGeometry>
        </mxCell>
        <mxCell id="DlAjDnFaqCmhrRuFa9Sz-16" value="Número" style="ellipse;whiteSpace=wrap;html=1;" vertex="1" parent="DlAjDnFaqCmhrRuFa9Sz-2">
          <mxGeometry x="450" y="70" width="60" height="30" as="geometry" />
        </mxCell>
        <mxCell id="DlAjDnFaqCmhrRuFa9Sz-18" value="" style="endArrow=none;html=1;rounded=0;entryX=0.5;entryY=1;entryDx=0;entryDy=0;exitX=0.5;exitY=0;exitDx=0;exitDy=0;" edge="1" parent="DlAjDnFaqCmhrRuFa9Sz-2" source="DlAjDnFaqCmhrRuFa9Sz-12" target="DlAjDnFaqCmhrRuFa9Sz-16">
          <mxGeometry width="50" height="50" relative="1" as="geometry">
            <mxPoint x="550" y="140" as="sourcePoint" />
            <mxPoint x="600" y="90" as="targetPoint" />
          </mxGeometry>
        </mxCell>
        <mxCell id="DlAjDnFaqCmhrRuFa9Sz-19" value="Bairro" style="ellipse;whiteSpace=wrap;html=1;" vertex="1" parent="DlAjDnFaqCmhrRuFa9Sz-2">
          <mxGeometry x="520" y="70" width="70" height="30" as="geometry" />
        </mxCell>
        <mxCell id="DlAjDnFaqCmhrRuFa9Sz-20" value="" style="endArrow=none;html=1;rounded=0;entryX=0.143;entryY=0.9;entryDx=0;entryDy=0;entryPerimeter=0;exitX=1;exitY=0;exitDx=0;exitDy=0;" edge="1" parent="DlAjDnFaqCmhrRuFa9Sz-2" source="DlAjDnFaqCmhrRuFa9Sz-12" target="DlAjDnFaqCmhrRuFa9Sz-19">
          <mxGeometry width="50" height="50" relative="1" as="geometry">
            <mxPoint x="480" y="160" as="sourcePoint" />
            <mxPoint x="530" y="110" as="targetPoint" />
          </mxGeometry>
        </mxCell>
        <mxCell id="DlAjDnFaqCmhrRuFa9Sz-21" value="CEP" style="ellipse;whiteSpace=wrap;html=1;" vertex="1" parent="DlAjDnFaqCmhrRuFa9Sz-2">
          <mxGeometry x="550" y="100" width="70" height="30" as="geometry" />
        </mxCell>
        <mxCell id="DlAjDnFaqCmhrRuFa9Sz-22" value="" style="endArrow=none;html=1;rounded=0;entryX=0.3;entryY=1;entryDx=0;entryDy=0;entryPerimeter=0;exitX=1;exitY=0.5;exitDx=0;exitDy=0;" edge="1" parent="DlAjDnFaqCmhrRuFa9Sz-2" target="DlAjDnFaqCmhrRuFa9Sz-21" source="DlAjDnFaqCmhrRuFa9Sz-12">
          <mxGeometry width="50" height="50" relative="1" as="geometry">
            <mxPoint x="520" y="166" as="sourcePoint" />
            <mxPoint x="560" y="140" as="targetPoint" />
          </mxGeometry>
        </mxCell>
        <mxCell id="DlAjDnFaqCmhrRuFa9Sz-23" value="Possui" style="rhombus;whiteSpace=wrap;html=1;" vertex="1" parent="DlAjDnFaqCmhrRuFa9Sz-2">
          <mxGeometry x="560" y="190" width="80" height="50" as="geometry" />
        </mxCell>
        <mxCell id="DlAjDnFaqCmhrRuFa9Sz-24" value="" style="endArrow=none;html=1;rounded=0;entryX=0;entryY=0.5;entryDx=0;entryDy=0;" edge="1" parent="DlAjDnFaqCmhrRuFa9Sz-2" source="DlAjDnFaqCmhrRuFa9Sz-3" target="DlAjDnFaqCmhrRuFa9Sz-23">
          <mxGeometry width="50" height="50" relative="1" as="geometry">
            <mxPoint x="520" y="230" as="sourcePoint" />
            <mxPoint x="570" y="180" as="targetPoint" />
          </mxGeometry>
        </mxCell>
        <mxCell id="DlAjDnFaqCmhrRuFa9Sz-28" value="1" style="edgeLabel;html=1;align=center;verticalAlign=middle;resizable=0;points=[];" vertex="1" connectable="0" parent="DlAjDnFaqCmhrRuFa9Sz-24">
          <mxGeometry x="-0.24" relative="1" as="geometry">
            <mxPoint as="offset" />
          </mxGeometry>
        </mxCell>
        <mxCell id="DlAjDnFaqCmhrRuFa9Sz-25" value="Responsável" style="rounded=0;whiteSpace=wrap;html=1;" vertex="1" parent="DlAjDnFaqCmhrRuFa9Sz-2">
          <mxGeometry x="670" y="187.5" width="120" height="55" as="geometry" />
        </mxCell>
        <mxCell id="DlAjDnFaqCmhrRuFa9Sz-26" value="" style="endArrow=none;html=1;rounded=0;entryX=0;entryY=0.5;entryDx=0;entryDy=0;exitX=0.913;exitY=0.5;exitDx=0;exitDy=0;exitPerimeter=0;" edge="1" parent="DlAjDnFaqCmhrRuFa9Sz-2" source="DlAjDnFaqCmhrRuFa9Sz-23" target="DlAjDnFaqCmhrRuFa9Sz-25">
          <mxGeometry width="50" height="50" relative="1" as="geometry">
            <mxPoint x="630" y="260" as="sourcePoint" />
            <mxPoint x="680" y="210" as="targetPoint" />
          </mxGeometry>
        </mxCell>
        <mxCell id="DlAjDnFaqCmhrRuFa9Sz-27" value="1" style="edgeLabel;html=1;align=center;verticalAlign=middle;resizable=0;points=[];" vertex="1" connectable="0" parent="DlAjDnFaqCmhrRuFa9Sz-26">
          <mxGeometry x="0.3219" y="1" relative="1" as="geometry">
            <mxPoint as="offset" />
          </mxGeometry>
        </mxCell>
        <mxCell id="DlAjDnFaqCmhrRuFa9Sz-29" value="Nome" style="ellipse;whiteSpace=wrap;html=1;" vertex="1" parent="DlAjDnFaqCmhrRuFa9Sz-2">
          <mxGeometry x="640" y="280" width="90" height="50" as="geometry" />
        </mxCell>
        <mxCell id="DlAjDnFaqCmhrRuFa9Sz-30" value="" style="endArrow=none;html=1;rounded=0;exitX=0.5;exitY=0;exitDx=0;exitDy=0;entryX=0.25;entryY=1;entryDx=0;entryDy=0;" edge="1" parent="DlAjDnFaqCmhrRuFa9Sz-2" source="DlAjDnFaqCmhrRuFa9Sz-29" target="DlAjDnFaqCmhrRuFa9Sz-25">
          <mxGeometry width="50" height="50" relative="1" as="geometry">
            <mxPoint x="680" y="280" as="sourcePoint" />
            <mxPoint x="685" y="250" as="targetPoint" />
          </mxGeometry>
        </mxCell>
        <mxCell id="DlAjDnFaqCmhrRuFa9Sz-32" value="Matrícula" style="ellipse;whiteSpace=wrap;html=1;" vertex="1" parent="DlAjDnFaqCmhrRuFa9Sz-2">
          <mxGeometry x="740" y="280" width="90" height="50" as="geometry" />
        </mxCell>
        <mxCell id="DlAjDnFaqCmhrRuFa9Sz-33" value="" style="endArrow=none;html=1;rounded=0;exitX=0.5;exitY=0;exitDx=0;exitDy=0;entryX=0.675;entryY=0.967;entryDx=0;entryDy=0;entryPerimeter=0;" edge="1" parent="DlAjDnFaqCmhrRuFa9Sz-2" source="DlAjDnFaqCmhrRuFa9Sz-32" target="DlAjDnFaqCmhrRuFa9Sz-25">
          <mxGeometry width="50" height="50" relative="1" as="geometry">
            <mxPoint x="780" y="280" as="sourcePoint" />
            <mxPoint x="800" y="245" as="targetPoint" />
          </mxGeometry>
        </mxCell>
        <mxCell id="DlAjDnFaqCmhrRuFa9Sz-34" value="Município" style="ellipse;whiteSpace=wrap;html=1;" vertex="1" parent="DlAjDnFaqCmhrRuFa9Sz-2">
          <mxGeometry x="165" y="120" width="70" height="50" as="geometry" />
        </mxCell>
        <mxCell id="DlAjDnFaqCmhrRuFa9Sz-35" value="" style="endArrow=none;html=1;rounded=0;exitX=0.598;exitY=0.94;exitDx=0;exitDy=0;exitPerimeter=0;" edge="1" parent="DlAjDnFaqCmhrRuFa9Sz-2" target="DlAjDnFaqCmhrRuFa9Sz-34" source="DlAjDnFaqCmhrRuFa9Sz-45">
          <mxGeometry width="50" height="50" relative="1" as="geometry">
            <mxPoint x="160" y="90" as="sourcePoint" />
            <mxPoint x="590" y="184" as="targetPoint" />
          </mxGeometry>
        </mxCell>
        <mxCell id="DlAjDnFaqCmhrRuFa9Sz-36" value="Código IBGE" style="ellipse;whiteSpace=wrap;html=1;" vertex="1" parent="DlAjDnFaqCmhrRuFa9Sz-2">
          <mxGeometry x="80" y="125" width="70" height="40" as="geometry" />
        </mxCell>
        <mxCell id="DlAjDnFaqCmhrRuFa9Sz-37" value="" style="endArrow=none;html=1;rounded=0;exitX=0;exitY=0.5;exitDx=0;exitDy=0;" edge="1" parent="DlAjDnFaqCmhrRuFa9Sz-2" target="DlAjDnFaqCmhrRuFa9Sz-36" source="DlAjDnFaqCmhrRuFa9Sz-34">
          <mxGeometry width="50" height="50" relative="1" as="geometry">
            <mxPoint x="160" y="150" as="sourcePoint" />
            <mxPoint x="560" y="234" as="targetPoint" />
          </mxGeometry>
        </mxCell>
        <mxCell id="DlAjDnFaqCmhrRuFa9Sz-38" value="Ocorrência" style="rounded=0;whiteSpace=wrap;html=1;" vertex="1" parent="DlAjDnFaqCmhrRuFa9Sz-2">
          <mxGeometry x="140" y="190" width="120" height="50" as="geometry" />
        </mxCell>
        <mxCell id="DlAjDnFaqCmhrRuFa9Sz-40" value="Tipo" style="ellipse;whiteSpace=wrap;html=1;" vertex="1" parent="DlAjDnFaqCmhrRuFa9Sz-2">
          <mxGeometry x="89" y="280" width="90" height="50" as="geometry" />
        </mxCell>
        <mxCell id="DlAjDnFaqCmhrRuFa9Sz-41" value="" style="endArrow=none;html=1;rounded=0;entryX=0.25;entryY=1;entryDx=0;entryDy=0;" edge="1" parent="DlAjDnFaqCmhrRuFa9Sz-2" source="DlAjDnFaqCmhrRuFa9Sz-40">
          <mxGeometry width="50" height="50" relative="1" as="geometry">
            <mxPoint x="79" y="290" as="sourcePoint" />
            <mxPoint x="159" y="240" as="targetPoint" />
          </mxGeometry>
        </mxCell>
        <mxCell id="DlAjDnFaqCmhrRuFa9Sz-42" value="Atende" style="rhombus;whiteSpace=wrap;html=1;" vertex="1" parent="DlAjDnFaqCmhrRuFa9Sz-2">
          <mxGeometry x="290" y="190" width="80" height="50" as="geometry" />
        </mxCell>
        <mxCell id="DlAjDnFaqCmhrRuFa9Sz-43" value="" style="endArrow=none;html=1;rounded=0;exitX=1;exitY=0.5;exitDx=0;exitDy=0;entryX=0;entryY=0.5;entryDx=0;entryDy=0;" edge="1" parent="DlAjDnFaqCmhrRuFa9Sz-2" source="DlAjDnFaqCmhrRuFa9Sz-38" target="DlAjDnFaqCmhrRuFa9Sz-42">
          <mxGeometry width="50" height="50" relative="1" as="geometry">
            <mxPoint x="340" y="290" as="sourcePoint" />
            <mxPoint x="390" y="240" as="targetPoint" />
          </mxGeometry>
        </mxCell>
        <mxCell id="DlAjDnFaqCmhrRuFa9Sz-48" value="N" style="edgeLabel;html=1;align=center;verticalAlign=middle;resizable=0;points=[];" vertex="1" connectable="0" parent="DlAjDnFaqCmhrRuFa9Sz-43">
          <mxGeometry x="0.1778" relative="1" as="geometry">
            <mxPoint as="offset" />
          </mxGeometry>
        </mxCell>
        <mxCell id="DlAjDnFaqCmhrRuFa9Sz-44" value="" style="endArrow=none;html=1;rounded=0;entryX=0;entryY=0.5;entryDx=0;entryDy=0;exitX=1;exitY=0.5;exitDx=0;exitDy=0;" edge="1" parent="DlAjDnFaqCmhrRuFa9Sz-2" source="DlAjDnFaqCmhrRuFa9Sz-42" target="DlAjDnFaqCmhrRuFa9Sz-3">
          <mxGeometry width="50" height="50" relative="1" as="geometry">
            <mxPoint x="340" y="290" as="sourcePoint" />
            <mxPoint x="390" y="240" as="targetPoint" />
          </mxGeometry>
        </mxCell>
        <mxCell id="DlAjDnFaqCmhrRuFa9Sz-49" value="N" style="edgeLabel;html=1;align=center;verticalAlign=middle;resizable=0;points=[];" vertex="1" connectable="0" parent="DlAjDnFaqCmhrRuFa9Sz-44">
          <mxGeometry x="0.1303" y="2" relative="1" as="geometry">
            <mxPoint as="offset" />
          </mxGeometry>
        </mxCell>
        <mxCell id="DlAjDnFaqCmhrRuFa9Sz-45" value="Região" style="ellipse;whiteSpace=wrap;html=1;" vertex="1" parent="DlAjDnFaqCmhrRuFa9Sz-2">
          <mxGeometry x="129" y="75" width="50" height="35" as="geometry" />
        </mxCell>
        <mxCell id="DlAjDnFaqCmhrRuFa9Sz-46" value="Nome" style="ellipse;whiteSpace=wrap;html=1;" vertex="1" parent="DlAjDnFaqCmhrRuFa9Sz-2">
          <mxGeometry x="200" y="80" width="70" height="22.5" as="geometry" />
        </mxCell>
        <mxCell id="DlAjDnFaqCmhrRuFa9Sz-47" value="" style="endArrow=none;html=1;rounded=0;exitX=0.761;exitY=0.04;exitDx=0;exitDy=0;exitPerimeter=0;entryX=0.408;entryY=1.038;entryDx=0;entryDy=0;entryPerimeter=0;" edge="1" parent="DlAjDnFaqCmhrRuFa9Sz-2" source="DlAjDnFaqCmhrRuFa9Sz-34" target="DlAjDnFaqCmhrRuFa9Sz-46">
          <mxGeometry width="50" height="50" relative="1" as="geometry">
            <mxPoint x="185" y="150" as="sourcePoint" />
            <mxPoint x="235" y="100" as="targetPoint" />
          </mxGeometry>
        </mxCell>
        <mxCell id="DlAjDnFaqCmhrRuFa9Sz-50" value="" style="endArrow=none;html=1;rounded=0;entryX=0.5;entryY=1;entryDx=0;entryDy=0;exitX=0.5;exitY=0;exitDx=0;exitDy=0;" edge="1" parent="DlAjDnFaqCmhrRuFa9Sz-2" source="DlAjDnFaqCmhrRuFa9Sz-38" target="DlAjDnFaqCmhrRuFa9Sz-34">
          <mxGeometry width="50" height="50" relative="1" as="geometry">
            <mxPoint x="260" y="240" as="sourcePoint" />
            <mxPoint x="310" y="190" as="targetPoint" />
          </mxGeometry>
        </mxCell>
        <mxCell id="DlAjDnFaqCmhrRuFa9Sz-51" value="Data" style="ellipse;whiteSpace=wrap;html=1;" vertex="1" parent="DlAjDnFaqCmhrRuFa9Sz-2">
          <mxGeometry x="60" y="197.5" width="60" height="35" as="geometry" />
        </mxCell>
        <mxCell id="DlAjDnFaqCmhrRuFa9Sz-52" value="" style="endArrow=none;html=1;rounded=0;exitX=0;exitY=0.5;exitDx=0;exitDy=0;entryX=0.991;entryY=0.631;entryDx=0;entryDy=0;entryPerimeter=0;" edge="1" parent="DlAjDnFaqCmhrRuFa9Sz-2" source="DlAjDnFaqCmhrRuFa9Sz-38" target="DlAjDnFaqCmhrRuFa9Sz-51">
          <mxGeometry width="50" height="50" relative="1" as="geometry">
            <mxPoint x="30" y="280" as="sourcePoint" />
            <mxPoint x="80" y="230" as="targetPoint" />
          </mxGeometry>
        </mxCell>
      </root>
    </mxGraphModel>
  </diagram>
</mxfile>
